<svg id="clorox_new_logo" data-name="clorox new logo" xmlns="http://www.w3.org/2000/svg" viewBox="0 0 573 497.25"><defs><style>.cls-1{fill:#84c346;}.cls-2,.cls-3{fill:#3b3a3c;}.cls-3{font-size:107px;font-family:ChaparralPro-Bold, Chaparral Pro;font-weight:700;}.cls-4{fill:#fff;}</style></defs><title>clorox_craft_logo_green</title><path class="cls-1" d="M229.09,179.59c37.23-25.54,69-30.23,108.57-30.23,72.49,0,102.7,55.21,102.7,55.21,3.28,32.28.22,47.49,2.41,80.74-18.06,2.41-18.2.89-37.91,2.82l4.25,72.17s26.38,0,31.72-1.81c4.38,14,5.7,46.81,7.89,59.82-21.93,31.13-78.52,53.62-116.7,53.62-42.16,0-84.86-8.19-116.61-28.43-34.49-22.17-61.87-71.14-61.87-121.74C153.54,253.33,188.58,207.54,229.09,179.59Z" transform="translate(-15 -149.36)"/><path class="cls-2" d="M81.38,626.77a4.72,4.72,0,1,1-4.69-5.22A5,5,0,0,1,81.38,626.77Z" transform="translate(-15 -149.36)"/><path class="cls-2" d="M101,612.9h18v4.94H106.26v9.39h10.83v4.94H106.26V646H101Z" transform="translate(-15 -149.36)"/><path class="cls-2" d="M122.19,629.32c0-10.71,5.37-17,13.14-17s13.14,6.35,13.14,17-5.38,17.29-13.14,17.29S122.19,640,122.19,629.32Zm20.85,0c0-7.43-3-11.93-7.71-11.93s-7.71,4.5-7.71,11.93,3,12.19,7.71,12.19S143,636.75,143,629.32Z" transform="translate(-15 -149.36)"/><path class="cls-2" d="M154.46,612.9h10c6.2,0,11,2.43,11,9.82,0,7.11-4.77,10.34-11,10.34h-4.75V646h-5.29Zm9.5,15.47c4.08,0,6.3-1.89,6.3-5.65S168,617.6,164,617.6h-4.21v10.77Zm-.45,3.12,3.83-3.5,9.3,18H170.7Z" transform="translate(-15 -149.36)"/><path class="cls-2" d="M188.5,641.76l3.08-4a11.18,11.18,0,0,0,7.77,3.78c3.35,0,5.19-1.69,5.19-4.28s-1.92-3.59-4.63-4.86l-4.07-2c-2.94-1.36-6-3.94-6-8.78,0-5.27,4.2-9.33,10-9.33a12.43,12.43,0,0,1,9.18,4.22l-2.71,3.73a9.12,9.12,0,0,0-6.47-2.85c-2.83,0-4.67,1.47-4.67,3.89,0,2.6,2.27,3.56,4.74,4.69l4,1.87c3.55,1.64,6,4.13,6,8.93,0,5.36-4,9.84-10.69,9.84A14.6,14.6,0,0,1,188.5,641.76Z" transform="translate(-15 -149.36)"/><path class="cls-2" d="M220.48,617.84h-8.61V612.9h22.49v4.94h-8.6V646h-5.28Z" transform="translate(-15 -149.36)"/><path class="cls-2" d="M243.35,612.9h6.19l9.72,33.1h-5.6l-4.54-17.61c-.94-3.51-1.82-7.28-2.69-10.92h-.19c-.82,3.67-1.69,7.41-2.64,10.92L239,646h-5.4Zm-4,19.53h14V637h-14Z" transform="translate(-15 -149.36)"/><path class="cls-2" d="M262.66,612.9H268V646h-5.29Z" transform="translate(-15 -149.36)"/><path class="cls-2" d="M275.51,612.9h5.43l9.26,18.6,3.08,7.07h.18c-.25-3.42-.67-7.61-.67-11.3V612.9h5V646h-5.43l-9.26-18.64-3.08-7h-.19c.26,3.5.68,7.49.68,11.17V646h-5Z" transform="translate(-15 -149.36)"/><path class="cls-2" d="M303.35,641.76l3.08-4a11.2,11.2,0,0,0,7.77,3.78c3.35,0,5.19-1.69,5.19-4.28s-1.92-3.59-4.63-4.86l-4.07-2c-2.94-1.36-6-3.94-6-8.78,0-5.27,4.19-9.33,10-9.33a12.47,12.47,0,0,1,9.19,4.22l-2.72,3.73a9.11,9.11,0,0,0-6.47-2.85c-2.82,0-4.67,1.47-4.67,3.89,0,2.6,2.27,3.56,4.74,4.69l4,1.87c3.55,1.64,6,4.13,6,8.93,0,5.36-4,9.84-10.7,9.84A14.6,14.6,0,0,1,303.35,641.76Z" transform="translate(-15 -149.36)"/><path class="cls-2" d="M336.84,637.29c0-10.32,13.76-11.15,13.76-17.93,0-1.74-.72-3.1-2.43-3.1-1.86,0-3.18,1.72-3.18,4.25,0,5.71,6.28,13.4,12.19,17.79a20.22,20.22,0,0,0,6.7,3.55l-1.31,4.76a23.66,23.66,0,0,1-8.54-4.55c-7-5.56-13.44-14.7-13.44-21.51,0-4.55,3-8.26,7.51-8.26,4.08,0,6.6,2.84,6.6,7,0,8.66-12.85,11-12.85,17.63a4.93,4.93,0,0,0,5.14,5.14c2.28,0,4.56-1.46,6.51-3.62a25.66,25.66,0,0,0,5.3-10.75h4.81a36.9,36.9,0,0,1-6.49,13.42,13.57,13.57,0,0,1-10.77,5.47C340.4,646.61,336.84,642.5,336.84,637.29Z" transform="translate(-15 -149.36)"/><path class="cls-2" d="M376,629.32c0-10.71,5.38-17,13.14-17s13.14,6.35,13.14,17-5.38,17.29-13.14,17.29S376,640,376,629.32Zm20.85,0c0-7.43-3-11.93-7.71-11.93s-7.71,4.5-7.71,11.93,3,12.19,7.71,12.19S396.84,636.75,396.84,629.32Z" transform="translate(-15 -149.36)"/><path class="cls-2" d="M408.26,612.9h7.95c9.13,0,14.53,5.47,14.53,16.42S425.34,646,416.48,646h-8.22Zm7.6,28.34c6,0,9.44-3.78,9.44-11.92s-3.44-11.66-9.44-11.66h-2.31v23.58Z" transform="translate(-15 -149.36)"/><path class="cls-2" d="M435.17,629.32c0-10.71,5.38-17,13.14-17s13.14,6.35,13.14,17-5.38,17.29-13.14,17.29S435.17,640,435.17,629.32Zm20.85,0c0-7.43-3-11.93-7.71-11.93s-7.71,4.5-7.71,11.93,3,12.19,7.71,12.19S456,636.75,456,629.32Z" transform="translate(-15 -149.36)"/><path class="cls-2" d="M467.44,612.9h10.05c6.19,0,11,2.43,11,9.82,0,7.11-4.78,10.34-11,10.34h-4.76V646h-5.29Zm9.5,15.47c4.08,0,6.3-1.89,6.3-5.65s-2.22-5.12-6.3-5.12h-4.21v10.77Zm-.45,3.12,3.83-3.5,9.3,18h-5.94Z" transform="translate(-15 -149.36)"/><path class="cls-2" d="M491.74,641.76l3.08-4a11.16,11.16,0,0,0,7.76,3.78c3.35,0,5.19-1.69,5.19-4.28s-1.92-3.59-4.63-4.86l-4.07-2c-2.93-1.36-6-3.94-6-8.78,0-5.27,4.19-9.33,10-9.33a12.45,12.45,0,0,1,9.19,4.22l-2.72,3.73a9.11,9.11,0,0,0-6.47-2.85c-2.82,0-4.66,1.47-4.66,3.89,0,2.6,2.27,3.56,4.74,4.69l4,1.87c3.55,1.64,6,4.13,6,8.93,0,5.36-4,9.84-10.7,9.84A14.57,14.57,0,0,1,491.74,641.76Z" transform="translate(-15 -149.36)"/><path class="cls-2" d="M540,626.77a4.72,4.72,0,1,1-4.69-5.22A5,5,0,0,1,540,626.77Z" transform="translate(-15 -149.36)"/><text class="cls-3" transform="translate(77.27 436.09) rotate(-3.84)">C</text><text class="cls-3" transform="translate(142.14 431.76) rotate(-2.59)">L</text><text class="cls-3" transform="translate(201.34 428.94) rotate(-1.15)">O</text><text class="cls-3" transform="translate(278.39 427.44) rotate(0.51)">R</text><text class="cls-3" transform="matrix(1, 0.04, -0.04, 1, 346.68, 427.97)">O</text><text class="cls-3" transform="translate(424.34 430.96) rotate(3.79)">X</text><path class="cls-4" d="M346.71,335.85s23.74,20.82,3.81,43.22-31.21,6.09-31.21,6.09-17.76-13.89-35.86.06-31.4-.82-34.69-11.75-1.16-27.07,9.63-35.15c4.07-3,10.16-5.74,15.33-14.85s8.75-29.49,28.87-29.93c23.11-.51,25.4,14.75,27.08,20.17C333.54,326.23,346.71,335.85,346.71,335.85Z" transform="translate(-15 -149.36)"/><path class="cls-4" d="M251.23,320.92c-8.92,1.85-17.21-5.84-17.62-24.34-.38-16.83,8-24.71,13.85-24.68s14.66,4,19.15,21.08S260.16,319.07,251.23,320.92Z" transform="translate(-15 -149.36)"/><path class="cls-4" d="M282.56,289.14s-15.95,3.84-14.9-28.36c.72-21.94,10.23-27.87,16.39-27.71s15.85,9.13,17,31.4C302.59,293.54,282.56,289.14,282.56,289.14Z" transform="translate(-15 -149.36)"/><path class="cls-4" d="M322.25,289.3s-14.9-3.11-12.59-29.67,19.58-21.76,19.58-21.76,15.23,3.84,11.8,30.38S322.25,289.3,322.25,289.3Z" transform="translate(-15 -149.36)"/><path class="cls-4" d="M350.39,316.13s-13.7-9.58-5.25-26.89,21.67-12.4,21.67-12.4,16.09,5.72,10.36,25.22S355.29,321.55,350.39,316.13Z" transform="translate(-15 -149.36)"/></svg>