<svg id="clorox_new_logo" data-name="clorox new logo" xmlns="http://www.w3.org/2000/svg" viewBox="0 0 468.02 139.76"><defs><style>.cls-1{fill:#fff;}</style></defs><title>clorox_textlogo</title><path class="cls-1" d="M81.38,165.82a4.72,4.72,0,1,1-4.69-5.21A5,5,0,0,1,81.38,165.82Z" transform="translate(-71.99 -45.9)"/><path class="cls-1" d="M101,152h18v4.94H106.26v9.4h10.83v4.94H106.26v13.82H101Z" transform="translate(-71.99 -45.9)"/><path class="cls-1" d="M122.19,168.37c0-10.71,5.37-17,13.14-17s13.14,6.34,13.14,17-5.38,17.29-13.14,17.29S122.19,179.08,122.19,168.37Zm20.85,0c0-7.43-3-11.92-7.71-11.92s-7.71,4.49-7.71,11.92,3,12.19,7.71,12.19S143,175.8,143,168.37Z" transform="translate(-71.99 -45.9)"/><path class="cls-1" d="M154.46,152h10c6.2,0,11,2.43,11,9.82,0,7.12-4.77,10.35-11,10.35h-4.75v12.93h-5.29Zm9.5,15.47c4.08,0,6.3-1.88,6.3-5.65s-2.22-5.12-6.3-5.12h-4.21v10.77Zm-.45,3.13,3.83-3.5,9.3,18H170.7Z" transform="translate(-71.99 -45.9)"/><path class="cls-1" d="M188.5,180.81l3.08-4a11.18,11.18,0,0,0,7.77,3.78c3.35,0,5.19-1.69,5.19-4.27s-1.92-3.6-4.63-4.87l-4.07-2c-2.94-1.36-6-3.94-6-8.78,0-5.28,4.2-9.33,10-9.33a12.39,12.39,0,0,1,9.18,4.22l-2.71,3.72a9.11,9.11,0,0,0-6.47-2.84c-2.83,0-4.67,1.47-4.67,3.88,0,2.61,2.27,3.57,4.74,4.69l4,1.87c3.55,1.64,6,4.13,6,8.93,0,5.37-4,9.84-10.69,9.84A14.6,14.6,0,0,1,188.5,180.81Z" transform="translate(-71.99 -45.9)"/><path class="cls-1" d="M220.48,156.89h-8.61V152h22.49v4.94h-8.6v28.16h-5.28Z" transform="translate(-71.99 -45.9)"/><path class="cls-1" d="M243.35,152h6.19l9.72,33.1h-5.6l-4.54-17.61c-.94-3.5-1.82-7.28-2.69-10.91h-.19c-.82,3.66-1.69,7.41-2.64,10.91L239,185.05h-5.4Zm-4,19.53h14v4.61h-14Z" transform="translate(-71.99 -45.9)"/><path class="cls-1" d="M262.66,152H268v33.1h-5.29Z" transform="translate(-71.99 -45.9)"/><path class="cls-1" d="M275.51,152h5.43l9.26,18.61,3.08,7.06h.18c-.25-3.42-.67-7.61-.67-11.29V152h5v33.1h-5.43l-9.26-18.63-3.08-7h-.19c.26,3.51.68,7.49.68,11.18v14.49h-5Z" transform="translate(-71.99 -45.9)"/><path class="cls-1" d="M303.35,180.81l3.08-4a11.2,11.2,0,0,0,7.77,3.78c3.35,0,5.19-1.69,5.19-4.27s-1.92-3.6-4.63-4.87l-4.07-2c-2.94-1.36-6-3.94-6-8.78,0-5.28,4.19-9.33,10-9.33a12.43,12.43,0,0,1,9.19,4.22l-2.72,3.72a9.1,9.1,0,0,0-6.47-2.84c-2.82,0-4.67,1.47-4.67,3.88,0,2.61,2.27,3.57,4.74,4.69l4,1.87c3.55,1.64,6,4.13,6,8.93,0,5.37-4,9.84-10.7,9.84A14.6,14.6,0,0,1,303.35,180.81Z" transform="translate(-71.99 -45.9)"/><path class="cls-1" d="M336.84,176.35c0-10.33,13.76-11.16,13.76-17.94,0-1.74-.72-3.1-2.43-3.1-1.86,0-3.18,1.72-3.18,4.26,0,5.7,6.28,13.4,12.19,17.78a20,20,0,0,0,6.7,3.55l-1.31,4.76a23.77,23.77,0,0,1-8.54-4.54c-7-5.56-13.44-14.7-13.44-21.51,0-4.56,3-8.26,7.51-8.26,4.08,0,6.6,2.83,6.6,7,0,8.67-12.85,11-12.85,17.63a4.94,4.94,0,0,0,5.14,5.15c2.28,0,4.56-1.46,6.51-3.63a25.54,25.54,0,0,0,5.3-10.75h4.81a36.82,36.82,0,0,1-6.49,13.42,13.57,13.57,0,0,1-10.77,5.47C340.4,185.66,336.84,181.55,336.84,176.35Z" transform="translate(-71.99 -45.9)"/><path class="cls-1" d="M376,168.37c0-10.71,5.38-17,13.14-17s13.14,6.34,13.14,17-5.38,17.29-13.14,17.29S376,179.08,376,168.37Zm20.85,0c0-7.43-3-11.92-7.71-11.92s-7.71,4.49-7.71,11.92,3,12.19,7.71,12.19S396.84,175.8,396.84,168.37Z" transform="translate(-71.99 -45.9)"/><path class="cls-1" d="M408.26,152h7.95c9.13,0,14.53,5.47,14.53,16.42s-5.4,16.68-14.26,16.68h-8.22Zm7.6,28.35c6,0,9.44-3.79,9.44-11.93s-3.44-11.66-9.44-11.66h-2.31V180.3Z" transform="translate(-71.99 -45.9)"/><path class="cls-1" d="M435.17,168.37c0-10.71,5.38-17,13.14-17s13.14,6.34,13.14,17-5.38,17.29-13.14,17.29S435.17,179.08,435.17,168.37Zm20.85,0c0-7.43-3-11.92-7.71-11.92s-7.71,4.49-7.71,11.92,3,12.19,7.71,12.19S456,175.8,456,168.37Z" transform="translate(-71.99 -45.9)"/><path class="cls-1" d="M467.44,152h10.05c6.19,0,11,2.43,11,9.82,0,7.12-4.78,10.35-11,10.35h-4.76v12.93h-5.29Zm9.5,15.47c4.08,0,6.3-1.88,6.3-5.65s-2.22-5.12-6.3-5.12h-4.21v10.77Zm-.45,3.13,3.83-3.5,9.3,18h-5.94Z" transform="translate(-71.99 -45.9)"/><path class="cls-1" d="M491.74,180.81l3.08-4a11.16,11.16,0,0,0,7.76,3.78c3.35,0,5.19-1.69,5.19-4.27s-1.92-3.6-4.63-4.87l-4.07-2c-2.93-1.36-6-3.94-6-8.78,0-5.28,4.19-9.33,10-9.33a12.42,12.42,0,0,1,9.19,4.22l-2.72,3.72a9.1,9.1,0,0,0-6.47-2.84c-2.82,0-4.66,1.47-4.66,3.88,0,2.61,2.27,3.57,4.74,4.69l4,1.87c3.55,1.64,6,4.13,6,8.93,0,5.37-4,9.84-10.7,9.84A14.57,14.57,0,0,1,491.74,180.81Z" transform="translate(-71.99 -45.9)"/><path class="cls-1" d="M540,165.82a4.72,4.72,0,1,1-4.69-5.21A5,5,0,0,1,540,165.82Z" transform="translate(-71.99 -45.9)"/><path class="cls-1" d="M107.43,61.17c6.88-6.15,16.19-9.56,25.7-10.2,6.62-.44,11.46-.12,14.2.66Q149,62.3,150.39,73.3c-3.49.77-7.29,1.56-11.11,2.25l-3.31-11c-.14-.42-.29-1.05-.73-1.24a9.06,9.06,0,0,0-5.11-1.05,14.18,14.18,0,0,0-9.84,5.17c-4.37,5.22-6.46,12.44-5.86,21.41.62,9.18,2.94,15,7.47,18.59,3.41,2.77,8.52,3.82,12.79,3.54a60,60,0,0,0,16.35-4.1,89.6,89.6,0,0,1,2.58,9.8c-6.65,3.12-16.44,5.93-21.88,6.29-8.22.55-16.67-.7-23.16-4.77-7.06-4.46-13-13.28-13.77-24.49C93.79,78.5,99.94,67.9,107.43,61.17Z" transform="translate(-71.99 -45.9)"/><path class="cls-1" d="M159.75,59.54c-.14-3-.18-6.2-.2-9.09l15.18-.69L190.66,49c.12,2.78.17,6.2.3,9.19l-6.72.52a.4.4,0,0,0-.41.45l2,48.22c.09,2,.11,2.35,5,2.13a41.64,41.64,0,0,0,8.41-1.13c1-.26,1.46-.93,1.83-2.12l3.25-11.18c3.66.48,7.33,1.06,10.68,1.66-1.08,7-2.15,14.13-3.54,21.15-5.25.13-19.57.67-34.43,1.34-4.92.23-10.26.58-14.75.78-.13-3-.17-6.21-.3-9.09l5.55-.47c.21-.11.41-.23.4-.55l-2.17-50.35Z" transform="translate(-71.99 -45.9)"/><path class="cls-1" d="M230.41,109.26c-6.66-6.39-9.93-14.78-10.16-26.12-.28-14.12,6.55-25.5,15.22-31,6.55-4.2,13.15-6,21.38-6.21a33.87,33.87,0,0,1,18.62,4.87c8.34,5.07,13.91,16.09,14.16,28.61.21,10.37-3.2,21.47-10.34,28.57-6.61,6.34-15,9.5-25.38,9.71C244.39,117.86,235.76,114.5,230.41,109.26ZM265,104c3.65-4.89,4.88-12.83,4.7-21.71-.18-8.67-2.15-16.33-4.82-21.2-2.22-4.13-5.68-6.09-9.64-6a11.78,11.78,0,0,0-9.75,4.79c-3,3.92-5.23,11.56-5,21.72.22,10.81,1.85,17.73,5.69,22.26a12.14,12.14,0,0,0,9.83,4.62C259.39,108.36,262.27,107.76,265,104Z" transform="translate(-71.99 -45.9)"/><path class="cls-1" d="M299.48,55.55c0-3.1.06-6.1.19-9.09,7.28,0,16.37-.07,24.72,0,6.1.06,9.41.09,15.71,1.64,9.3,2.12,15.21,10.51,15.15,17.36-.08,9.1-5.91,15.47-13.43,18.5v.64C346.5,86.89,349,93,353.74,103c1.16,2.68,1.9,3.76,3.18,3.88l5.13.68c0,2.89-.16,5.89-.19,8.88-1.92,0-5.78.06-7.81,0-2.35,0-11.45,0-13.48,0-2.74-4.84-7.77-17.3-9.86-22.34-1.36-3.33-3.28-4.63-5.74-4.66a9.48,9.48,0,0,0-2.46.2l-.26,17.22,5.78.37c-.14,3-.16,5.89-.19,8.88l-15.3-.13L299,115.9c.13-3,.16-5.89.19-8.88l5.24-.28a.33.33,0,0,0,.33-.31l.55-50.61Zm23.11,25.14a13,13,0,0,0,2.57.13c7.16.06,11.6-4.93,11.66-12,.07-7.81-4.7-13.63-10.37-13.68a11.25,11.25,0,0,0-3.42.29Z" transform="translate(-71.99 -45.9)"/><path class="cls-1" d="M376.2,109.12c-6.28-6.77-9.06-15.33-8.63-26.67.54-14.11,8-25.07,17-30.08,6.78-3.81,13.47-5.27,21.71-5a33.8,33.8,0,0,1,18.29,5.94c8,5.55,13,16.87,12.49,29.38-.39,10.37-4.44,21.24-12,27.92-7,5.94-15.53,8.62-25.9,8.23C389.66,118.52,381.24,114.66,376.2,109.12ZM411,105.83c3.92-4.67,5.61-12.53,5.94-21.4.33-8.66-1.19-16.43-3.58-21.44-2-4.25-5.32-6.42-9.28-6.56a11.8,11.8,0,0,0-10,4.22c-3.24,3.73-5.88,11.24-6.27,21.39-.4,10.8.83,17.81,4.4,22.55a12.13,12.13,0,0,0,9.55,5.18C405.19,109.9,408.09,109.47,411,105.83Z" transform="translate(-71.99 -45.9)"/><path class="cls-1" d="M444.54,110.38a1.48,1.48,0,0,0,1.11-.46c7.7-7.75,14.14-14.4,21.5-22l.05-.75c-5.56-8.3-11.74-18.69-16.86-27.07a.74.74,0,0,0-.62-.47l-5.53-.58c.19-3,.52-6.29.81-9.06l14.41,1c6.41.43,13.56.9,19,1.16-.19,2.88-.41,6.29-.71,9.17l-5.89-.07c3.22,6.33,6.08,11.77,8.4,15.68l.74,0a134.65,134.65,0,0,0,10.57-13.89c.12-.2.14-.52-.28-.55L485.92,62c.2-3,.43-6.4.72-9.17l16.12,1.06,10,.67c-.19,2.77-.41,6.08-.71,9.07h-4.93c-6.7,7.28-14.63,15.23-20.93,21.35l-.05.64c5.57,8.3,13.23,20.5,18.58,28.79L510,115c-.18,2.78-.51,6.08-.81,9.07-3.85-.26-9.39-.73-13.87-1-6.52-.43-14-.82-19.76-1.2.19-3,.41-6.3.71-9.18l5.89.07c.43,0,.67-.28.47-.61-3.37-5.8-6.71-12-9.24-15.84l-.64,0c-4.3,5-8.62,10.37-12.15,15l6.28.84c-.2,2.89-.41,6.2-.72,9.18-4.7-.31-10.78-.82-16.54-1.2-3.52-.24-7.48-.39-10.79-.61.2-3,.41-6.19.71-9.07Z" transform="translate(-71.99 -45.9)"/></svg>